<svg width="66" height="66" viewBox="0 0 66 66" fill="none" xmlns="http://www.w3.org/2000/svg">
<rect width="66" height="66" rx="20" fill="#586EA6"/>
<path d="M36.8251 19C35.0124 19 33.2739 19.7476 31.9921 21.0783C30.7103 22.4091 29.9901 24.2139 29.9901 26.0959V30.0466H26.3325C26.1493 30.0466 26 30.2 26 30.3918V35.6082C26 35.7985 26.1478 35.9534 26.3325 35.9534H29.9901V46.6548C29.9901 46.845 30.1379 47 30.3227 47H35.3473C35.5305 47 35.6798 46.8466 35.6798 46.6548V35.9534H39.37C39.5222 35.9534 39.6552 35.846 39.6921 35.6926L40.9483 30.4762C40.9606 30.4253 40.9617 30.3721 40.9512 30.3207C40.9408 30.2694 40.9193 30.2211 40.8882 30.1797C40.8572 30.1383 40.8174 30.1048 40.772 30.0817C40.7266 30.0586 40.6767 30.0466 40.6261 30.0466H35.6798V26.0959C35.6798 25.9397 35.7094 25.7851 35.767 25.6409C35.8245 25.4966 35.9089 25.3655 36.0153 25.2551C36.1216 25.1447 36.2479 25.0571 36.3868 24.9974C36.5258 24.9376 36.6747 24.9068 36.8251 24.9068H40.6675C40.8507 24.9068 41 24.7534 41 24.5616V19.3452C41 19.155 40.8522 19 40.6675 19H36.8251Z" fill="white"/>
</svg>
