<svg width="66" height="66" viewBox="0 0 66 66" fill="none" xmlns="http://www.w3.org/2000/svg">
<rect width="66" height="66" rx="20" fill="#6DD685"/>
<path d="M34.0442 22.0001C28.008 22.0001 23.0884 27.1175 23.0884 33.3965C23.0884 35.409 23.597 37.364 24.5477 39.089L23 45L28.804 43.413C30.407 44.3215 32.209 44.8045 34.0442 44.8045C40.0804 44.8045 45 39.687 45 33.408C45 30.3605 43.8613 27.497 41.794 25.3466C40.7803 24.2818 39.573 23.4375 38.2425 22.863C36.912 22.2884 35.4848 21.9951 34.0442 22.0001ZM34.0553 23.9206C36.4874 23.9206 38.7648 24.9096 40.4894 26.7035C41.3356 27.5839 42.0065 28.6292 42.4637 29.7797C42.9209 30.9302 43.1554 32.1631 43.1538 33.408C43.1538 38.629 39.0633 42.8725 34.0442 42.8725C32.408 42.8725 30.805 42.424 29.4121 41.55L29.0804 41.3545L25.6312 42.2975L26.5487 38.8015L26.3276 38.4335C25.4151 36.9252 24.9321 35.1787 24.9347 33.3965C24.9457 28.1755 29.0251 23.9206 34.0553 23.9206ZM30.1638 28.1295C29.9869 28.1295 29.6884 28.1985 29.4342 28.486C29.191 28.7735 28.4724 29.475 28.4724 30.8665C28.4724 32.2695 29.4563 33.615 29.5779 33.8105C29.7327 34.006 31.5236 36.881 34.2764 38.1C34.9286 38.4105 35.4372 38.583 35.8352 38.7095C36.4874 38.928 37.0844 38.8935 37.5598 38.8245C38.0905 38.744 39.1739 38.1345 39.406 37.4675C39.6382 36.8005 39.6382 36.237 39.5719 36.1105C39.4945 35.9955 39.3176 35.9265 39.0412 35.8C38.7648 35.639 37.4161 34.949 37.1729 34.857C36.9186 34.765 36.7638 34.719 36.5538 34.995C36.3769 35.2825 35.8462 35.9265 35.6915 36.1105C35.5256 36.306 35.3709 36.329 35.1055 36.191C34.8181 36.0415 33.9337 35.7425 32.8945 34.7765C32.0764 34.0175 31.5347 33.086 31.3688 32.7985C31.2362 32.5225 31.3578 32.35 31.4905 32.2235C31.6121 32.097 31.7889 31.89 31.8995 31.7175C32.0432 31.5565 32.0874 31.43 32.1759 31.246C32.2643 31.0505 32.2201 30.8895 32.1538 30.7515C32.0874 30.625 31.5347 29.199 31.3025 28.6355C31.0814 28.0835 30.8603 28.1525 30.6834 28.141C30.5286 28.141 30.3518 28.1295 30.1638 28.1295Z" fill="white"/>
</svg>
