<svg width="66" height="66" viewBox="0 0 66 66" fill="none" xmlns="http://www.w3.org/2000/svg">
<rect width="66" height="66" rx="20" fill="#0074B5"/>
<path d="M22 23.6474C22 22.7374 22.7561 22 23.6891 22H43.3109C44.2439 22 45 22.7374 45 23.6474V43.3526C45 44.2626 44.2439 45 43.3109 45H23.6891C22.7561 45 22 44.2626 22 43.3526V23.6474ZM29.1056 41.2539V30.8679H25.6541V41.2539H29.1056ZM27.3806 29.4491C28.5838 29.4491 29.3327 28.6528 29.3327 27.6551C29.3111 26.6359 28.5852 25.8611 27.4036 25.8611C26.2219 25.8611 25.45 26.6374 25.45 27.6551C25.45 28.6528 26.1989 29.4491 27.3576 29.4491H27.3806ZM34.4358 41.2539V35.4536C34.4358 35.1431 34.4588 34.8326 34.5508 34.6112C34.7995 33.9916 35.3673 33.3491 36.3218 33.3491C37.571 33.3491 38.0698 34.3007 38.0698 35.6979V41.2539H41.5212V35.2969C41.5212 32.1056 39.8193 30.6221 37.548 30.6221C35.7166 30.6221 34.8958 31.6284 34.4358 32.3371V32.373H34.4128L34.4358 32.3371V30.8679H30.9858C31.0289 31.8426 30.9858 41.2539 30.9858 41.2539H34.4358Z" fill="white"/>
</svg>
