<svg width="66" height="66" viewBox="0 0 66 66" fill="none" xmlns="http://www.w3.org/2000/svg">
<rect width="66" height="66" rx="20" fill="#FF4B5C"/>
<path d="M42.4444 22H24.5556C23.15 22 22 23.15 22 24.5556V42.4444C22 43.8513 23.15 45 24.5556 45H42.4444C43.85 45 45 43.8513 45 42.4444V24.5556C45 23.15 43.85 22 42.4444 22ZM33.4796 40.5572C35.3563 40.5565 37.156 39.8106 38.483 38.4834C39.8099 37.1562 40.5556 35.3563 40.5559 33.4796C40.5559 33.0477 40.5009 32.6311 40.4243 32.2222H42.4444V41.4427C42.4444 41.5588 42.4215 41.6737 42.377 41.781C42.3324 41.8882 42.2671 41.9855 42.1849 42.0675C42.1026 42.1494 42.0049 42.2142 41.8975 42.2583C41.7901 42.3024 41.675 42.3248 41.5589 42.3243H25.4411C25.325 42.3248 25.2099 42.3024 25.1025 42.2583C24.9951 42.2142 24.8974 42.1494 24.8151 42.0675C24.7329 41.9855 24.6676 41.8882 24.623 41.781C24.5785 41.6737 24.5556 41.5588 24.5556 41.4427V32.2222H26.5348C26.4569 32.6311 26.4019 33.0477 26.4019 33.4796C26.4023 35.3566 27.1481 37.1566 28.4753 38.4838C29.8025 39.811 31.6026 40.5568 33.4796 40.5572ZM29.0572 33.4796C29.0572 32.8988 29.1716 32.3237 29.3938 31.7872C29.616 31.2506 29.9418 30.7631 30.3525 30.3525C30.7631 29.9418 31.2506 29.616 31.7872 29.3938C32.3237 29.1716 32.8988 29.0572 33.4796 29.0572C34.0603 29.0572 34.6354 29.1716 35.1719 29.3938C35.7085 29.616 36.196 29.9418 36.6067 30.3525C37.0173 30.7631 37.3431 31.2506 37.5653 31.7872C37.7876 32.3237 37.9019 32.8988 37.9019 33.4796C37.9019 34.6524 37.436 35.7773 36.6067 36.6067C35.7773 37.436 34.6524 37.9019 33.4796 37.9019C32.3067 37.9019 31.1818 37.436 30.3525 36.6067C29.5231 35.7773 29.0572 34.6524 29.0572 33.4796ZM41.5589 28.3889H39.4953C39.261 28.3882 39.0365 28.2948 38.8708 28.1292C38.7052 27.9635 38.6118 27.739 38.6111 27.5047V25.4385C38.6111 24.9504 39.0072 24.5556 39.4941 24.5556H41.5577C42.0483 24.5556 42.4444 24.9504 42.4444 25.4385V27.5034C42.4444 27.9902 42.0483 28.3889 41.5589 28.3889Z" fill="white"/>
</svg>
