<svg width="79" height="28" viewBox="0 0 79 28" fill="none" xmlns="http://www.w3.org/2000/svg">
<path d="M15.708 0.382812C16.18 0.773438 16.6618 1.19987 17.1533 1.66211C17.6449 2.12109 18.0924 2.62728 18.4961 3.18066C18.903 3.73405 19.2139 4.3444 19.4287 5.01172C19.8519 6.38216 19.7428 8.03255 19.1016 9.96289C17.4512 14.9271 13.597 19.377 7.53906 23.3125C6.81641 23.791 6.05632 24.2354 5.25879 24.6455C4.46452 25.0557 3.6263 25.3698 2.74414 25.5879C2.6237 25.6172 2.49512 25.6416 2.3584 25.6611C2.22493 25.6839 2.08822 25.6953 1.94824 25.6953C1.81152 25.6953 1.6748 25.6807 1.53809 25.6514C1.40137 25.6221 1.26953 25.5732 1.14258 25.5049C0.722656 25.2705 0.46875 24.8831 0.380859 24.3428C0.292969 23.8024 0.375977 23.1465 0.629883 22.375C2.54395 16.6361 4.83398 11.0518 7.5 5.62207C7.53255 5.56022 7.57975 5.51953 7.6416 5.5C7.70345 5.47721 7.76693 5.48047 7.83203 5.50977C7.89388 5.54232 7.93457 5.58952 7.9541 5.65137C7.97689 5.71322 7.97363 5.77507 7.94434 5.83691C5.28809 11.2471 3.00618 16.8118 1.09863 22.5312C1.02376 22.7428 0.953776 23.0163 0.888672 23.3516C0.826823 23.6901 0.823568 24.0189 0.878906 24.3379C0.934245 24.6602 1.10026 24.9043 1.37695 25.0703C1.56901 25.168 1.77572 25.2103 1.99707 25.1973C2.22168 25.1875 2.43327 25.1566 2.63184 25.1045C3.47819 24.8962 4.28711 24.5918 5.05859 24.1914C5.83008 23.7943 6.56738 23.363 7.27051 22.8975C13.2308 19.0238 17.0182 14.6602 18.6328 9.80664C19.2415 7.97396 19.349 6.42448 18.9551 5.1582C18.7565 4.53646 18.4619 3.96354 18.0713 3.43945C17.6839 2.91536 17.2526 2.43197 16.7773 1.98926C16.3053 1.54655 15.8431 1.13802 15.3906 0.763672C15.3385 0.714844 15.3092 0.657878 15.3027 0.592773C15.2995 0.527669 15.319 0.467448 15.3613 0.412109C15.4069 0.360026 15.4622 0.332357 15.5273 0.329102C15.5924 0.322591 15.6527 0.340495 15.708 0.382812ZM19.5557 17.6045C19.9268 17.637 20.3434 17.554 20.8057 17.3555C21.2679 17.1536 21.6357 16.9372 21.9092 16.7061C21.9548 16.667 22.0052 16.6507 22.0605 16.6572C22.1159 16.6605 22.1631 16.6833 22.2021 16.7256C22.2412 16.7712 22.2575 16.8216 22.251 16.877C22.2477 16.9323 22.2249 16.9795 22.1826 17.0186C22.0068 17.1715 21.779 17.3262 21.499 17.4824C21.2223 17.6354 20.9261 17.7656 20.6104 17.873C20.2946 17.9805 19.9967 18.0342 19.7168 18.0342C19.6419 18.0342 19.5703 18.0293 19.502 18.0195C19.196 17.9772 18.9697 17.8454 18.8232 17.624C18.5628 17.2236 18.693 16.5482 19.2139 15.5977C19.2432 15.5456 19.2839 15.513 19.3359 15.5C19.3913 15.4837 19.445 15.4886 19.4971 15.5146C19.5459 15.5439 19.5785 15.5863 19.5947 15.6416C19.611 15.6937 19.6045 15.7458 19.5752 15.7979C19.3831 16.1592 19.2546 16.4505 19.1895 16.6719C19.1243 16.8932 19.0967 17.0609 19.1064 17.1748C19.1195 17.2855 19.1406 17.3587 19.1699 17.3945C19.2448 17.5117 19.3734 17.5817 19.5557 17.6045ZM19.7949 14.7236C19.8535 14.7236 19.904 14.7448 19.9463 14.7871C19.9886 14.8294 20.0098 14.8799 20.0098 14.9385C20.0098 14.9971 19.9886 15.0475 19.9463 15.0898C19.904 15.1322 19.8535 15.1533 19.7949 15.1533C19.7363 15.1533 19.6859 15.1322 19.6436 15.0898C19.6012 15.0475 19.5801 14.9971 19.5801 14.9385C19.5801 14.8799 19.6012 14.8294 19.6436 14.7871C19.6859 14.7448 19.7363 14.7236 19.7949 14.7236ZM26.0938 10.5049C26.1784 10.6904 26.1572 10.9964 26.0303 11.4229C25.9033 11.846 25.6673 12.3457 25.3223 12.9219H25.9375C25.9668 12.9219 25.9912 12.9316 26.0107 12.9512C26.0335 12.9707 26.0449 12.9951 26.0449 13.0244C26.0449 13.0537 26.0335 13.0781 26.0107 13.0977C25.9912 13.1172 25.9668 13.127 25.9375 13.127H25.1953C24.8828 13.6185 24.4922 14.1328 24.0234 14.6699C23.5579 15.2038 23.0094 15.736 22.3779 16.2666C22.238 16.846 22.2396 17.2334 22.3828 17.4287C22.4544 17.5231 22.5732 17.5703 22.7393 17.5703C22.7393 17.5703 22.7409 17.5703 22.7441 17.5703C23.1055 17.5475 23.5107 17.3962 23.96 17.1162C24.4124 16.8363 24.751 16.5579 24.9756 16.2812C25.0146 16.2389 25.0618 16.2145 25.1172 16.208C25.1725 16.2015 25.223 16.2145 25.2686 16.2471C25.3141 16.2861 25.3402 16.3333 25.3467 16.3887C25.3532 16.444 25.3385 16.4945 25.3027 16.54C25.1465 16.7386 24.9219 16.9486 24.6289 17.1699C24.3359 17.3913 24.0218 17.5817 23.6865 17.7412C23.3512 17.8975 23.0371 17.9788 22.7441 17.9854C22.7441 17.9854 22.7425 17.9854 22.7393 17.9854C22.557 17.9854 22.4105 17.9544 22.2998 17.8926C22.1891 17.8275 22.1077 17.7591 22.0557 17.6875C21.7367 17.2839 21.8034 16.4798 22.2559 15.2754C22.5098 14.6048 22.8516 13.8887 23.2812 13.127H20.8936C20.8643 13.127 20.8398 13.1172 20.8203 13.0977C20.8008 13.0781 20.791 13.0537 20.791 13.0244C20.791 12.9951 20.8008 12.9707 20.8203 12.9512C20.8398 12.9316 20.8643 12.9219 20.8936 12.9219H23.3984C23.7956 12.2383 24.2008 11.6507 24.6143 11.1592C25.0277 10.6644 25.3923 10.3796 25.708 10.3047C25.8838 10.2786 26.0124 10.3454 26.0938 10.5049ZM22.6123 15.5146C23.5238 14.6618 24.2188 13.8659 24.6973 13.127H23.7598C23.3236 13.8626 22.9525 14.6276 22.6465 15.4219C22.6335 15.4512 22.6221 15.4821 22.6123 15.5146ZM24.8291 12.9219C25.1774 12.362 25.4215 11.89 25.5615 11.5059C25.7015 11.1185 25.7585 10.8581 25.7324 10.7246C25.5273 10.8027 25.2588 11.0404 24.9268 11.4375C24.5947 11.8346 24.2464 12.3294 23.8818 12.9219H24.8291ZM29.585 16.0713C29.637 16.0387 29.6908 16.0273 29.7461 16.0371C29.8014 16.0469 29.847 16.0745 29.8828 16.1201C29.9154 16.1722 29.9268 16.2259 29.917 16.2812C29.9072 16.3366 29.8796 16.3822 29.834 16.418C29.2285 16.8346 28.6768 17.0999 28.1787 17.2139C27.6839 17.3278 27.2542 17.3441 26.8896 17.2627C26.7985 17.4515 26.6699 17.624 26.5039 17.7803C26.3053 17.9658 26.0921 18.0781 25.8643 18.1172C25.8122 18.127 25.7617 18.1318 25.7129 18.1318C25.4883 18.1318 25.2913 18.057 25.1221 17.9072C24.8486 17.6338 24.7493 17.2904 24.8242 16.877C24.8698 16.6654 24.9707 16.4456 25.127 16.2178C25.2799 15.9899 25.4769 15.8353 25.7178 15.7539C25.8317 15.6595 25.9896 15.6188 26.1914 15.6318C26.3216 15.6383 26.4551 15.6758 26.5918 15.7441C26.7318 15.8125 26.8424 15.9183 26.9238 16.0615C27.0085 16.2275 27.0508 16.4098 27.0508 16.6084C27.0475 16.693 27.0378 16.776 27.0215 16.8574C27.3503 16.916 27.7311 16.89 28.1641 16.7793C28.6003 16.6654 29.0739 16.4294 29.585 16.0713ZM26.2158 17.4727C26.3232 17.3717 26.4095 17.2627 26.4746 17.1455C26.1882 17.0251 25.9749 16.89 25.835 16.7402C25.7048 16.6068 25.6185 16.4701 25.5762 16.3301C25.4069 16.5156 25.293 16.7288 25.2344 16.9697C25.2083 17.0869 25.21 17.2025 25.2393 17.3164C25.2718 17.4303 25.3271 17.5247 25.4053 17.5996C25.5094 17.6875 25.6396 17.7217 25.7959 17.7021C25.887 17.6859 25.9684 17.6549 26.04 17.6094C26.1117 17.5638 26.1702 17.5182 26.2158 17.4727ZM26.6162 16.75C26.6227 16.6979 26.626 16.6475 26.626 16.5986C26.6292 16.54 26.6227 16.4814 26.6064 16.4229C26.5934 16.361 26.5755 16.3073 26.5527 16.2617C26.4941 16.1641 26.3883 16.0973 26.2354 16.0615C26.167 16.0485 26.1117 16.0452 26.0693 16.0518C26.027 16.0583 26.001 16.0648 25.9912 16.0713C25.988 16.0745 25.9863 16.0778 25.9863 16.0811C25.9635 16.1169 25.9652 16.1689 25.9912 16.2373C26.0173 16.3024 26.0645 16.3708 26.1328 16.4424C26.25 16.5628 26.4111 16.6654 26.6162 16.75ZM32.334 16.4375C32.3861 16.4635 32.4202 16.5026 32.4365 16.5547C32.4561 16.6068 32.4544 16.6589 32.4316 16.7109C32.2624 17.0592 32.0605 17.3376 31.8262 17.5459C31.5951 17.751 31.3525 17.8991 31.0986 17.9902C30.8447 18.0781 30.6087 18.1221 30.3906 18.1221C30.3483 18.1221 30.3076 18.1204 30.2686 18.1172C29.8421 18.0781 29.5801 17.9284 29.4824 17.668C29.4141 17.401 29.445 17.152 29.5752 16.9209C29.7021 16.6898 29.834 16.4977 29.9707 16.3447C29.974 16.3447 29.9772 16.3431 29.9805 16.3398C29.9805 16.3366 29.9821 16.335 29.9854 16.335C29.8714 16.2633 29.7721 16.1787 29.6875 16.0811C29.5703 15.9313 29.515 15.7995 29.5215 15.6855C29.5215 15.6725 29.5215 15.6611 29.5215 15.6514C29.515 15.5472 29.5638 15.4235 29.668 15.2803C29.7689 15.1338 29.9349 15.0182 30.166 14.9336C30.319 14.8717 30.4655 14.8701 30.6055 14.9287C30.7064 14.971 30.7731 15.0345 30.8057 15.1191C30.8382 15.2135 30.8366 15.3096 30.8008 15.4072C30.765 15.5049 30.7129 15.5846 30.6445 15.6465C30.4915 15.7799 30.3288 15.8809 30.1562 15.9492C30.2214 15.9948 30.293 16.0339 30.3711 16.0664C30.4264 16.0892 30.4655 16.1266 30.4883 16.1787C30.5078 16.2308 30.5078 16.2845 30.4883 16.3398C30.4525 16.4115 30.3874 16.5026 30.293 16.6133C30.179 16.7402 30.0716 16.8867 29.9707 17.0527C29.8698 17.2188 29.8389 17.3815 29.8779 17.541C29.8844 17.5671 29.9219 17.598 29.9902 17.6338C30.0618 17.6696 30.1644 17.6924 30.2979 17.7021C30.5811 17.7282 30.887 17.6549 31.2158 17.4824C31.5446 17.3066 31.8245 16.9909 32.0557 16.5352C32.0817 16.4831 32.1208 16.4473 32.1729 16.4277C32.2249 16.4082 32.2786 16.4115 32.334 16.4375ZM29.9512 15.583C30.1009 15.5309 30.2393 15.4495 30.3662 15.3389C30.3792 15.3291 30.389 15.3161 30.3955 15.2998C30.376 15.2998 30.3516 15.3063 30.3223 15.3193C30.1237 15.4007 30 15.4886 29.9512 15.583ZM64.3213 4.31836C64.3734 4.35742 64.4059 4.40625 64.4189 4.46484C64.432 4.52344 64.4238 4.58203 64.3945 4.64062C64.3587 4.70573 64.0495 5.2819 63.4668 6.36914C62.8874 7.45638 62.1631 8.80404 61.2939 10.4121C60.4248 12.0169 59.5443 13.6315 58.6523 15.2559C57.7637 16.8802 56.9922 18.2637 56.3379 19.4062C56.3021 19.4648 56.2516 19.5023 56.1865 19.5186C56.1247 19.5381 56.0628 19.5299 56.001 19.4941C55.9424 19.4583 55.9033 19.4079 55.8838 19.3428C55.8675 19.2809 55.8757 19.2191 55.9082 19.1572C56.8978 17.4255 58.0762 15.3031 59.4434 12.79C60.8105 10.2738 61.9596 8.14323 62.8906 6.39844C61.8164 7.67448 60.5404 9.20768 59.0625 10.998C57.5879 12.7852 56.1279 14.5592 54.6826 16.3203C53.2406 18.0781 52.0329 19.5511 51.0596 20.7393C50.0895 21.9307 49.5736 22.5654 49.5117 22.6436C49.4727 22.6891 49.4255 22.7168 49.3701 22.7266C49.3148 22.7396 49.2594 22.7331 49.2041 22.707C49.152 22.6777 49.1146 22.637 49.0918 22.585C49.069 22.5329 49.0658 22.4792 49.082 22.4238L53.4082 6.73535C52.4544 8.18717 51.1133 10.2331 49.3848 12.873C47.6595 15.513 45.9554 18.1253 44.2725 20.71C42.5928 23.2979 41.3428 25.2347 40.5225 26.5205C40.3695 26.846 40.2214 27.165 40.0781 27.4775C40.0195 27.5719 39.9447 27.6191 39.8535 27.6191C39.8177 27.6191 39.7835 27.611 39.751 27.5947C39.7477 27.5947 39.7445 27.5931 39.7412 27.5898C39.738 27.5866 39.7363 27.585 39.7363 27.585C39.7331 27.585 39.7314 27.585 39.7314 27.585C39.7314 27.585 39.7298 27.585 39.7266 27.585C39.6875 27.585 39.6484 27.5752 39.6094 27.5557C39.5508 27.5199 39.5117 27.4694 39.4922 27.4043C39.4727 27.3424 39.4792 27.2806 39.5117 27.2188C39.5833 27.0918 39.7754 26.7809 40.0879 26.2861C41.0189 24.3395 42.0622 22.2188 43.2178 19.9238C44.165 18.0293 45.0863 16.1608 45.9814 14.3184C46.8799 12.4759 47.6676 10.7718 48.3447 9.20605C48.8265 8.10579 49.2497 7.03483 49.6143 5.99316C49.9821 4.9515 50.2441 3.89518 50.4004 2.82422C50.4232 2.69727 50.4346 2.51172 50.4346 2.26758C50.4378 2.02018 50.4004 1.77604 50.3223 1.53516C50.2474 1.29427 50.1009 1.11686 49.8828 1.00293C49.6973 0.915039 49.432 0.905273 49.0869 0.973633C48.5042 1.10059 47.9492 1.32357 47.4219 1.64258C46.8978 1.95833 46.3965 2.31152 45.918 2.70215C44.2448 4.02051 42.5798 5.57324 40.9229 7.36035C39.266 9.14746 37.5244 11.2747 35.6982 13.7422C35.0016 14.6569 34.3392 15.6172 33.7109 16.623C33.0859 17.6289 32.5781 18.6999 32.1875 19.8359C32.1387 19.9889 32.1175 20.1338 32.124 20.2705C32.1273 20.4105 32.1647 20.4967 32.2363 20.5293C32.3047 20.5521 32.3519 20.5928 32.3779 20.6514C32.4072 20.71 32.4121 20.7734 32.3926 20.8418C32.3698 20.9069 32.3291 20.9541 32.2705 20.9834C32.2119 21.0127 32.1484 21.0176 32.0801 20.998C31.8392 20.9036 31.696 20.7295 31.6504 20.4756C31.6048 20.2249 31.6276 19.9596 31.7188 19.6797C32.1191 18.5111 32.6383 17.4124 33.2764 16.3838C33.9176 15.3551 34.5931 14.3753 35.3027 13.4443C37.1419 10.9639 38.8965 8.82194 40.5664 7.01855C42.2363 5.21517 43.9176 3.64616 45.6104 2.31152C46.1117 1.90462 46.6423 1.53353 47.2021 1.19824C47.762 0.862956 48.3577 0.626953 48.9893 0.490234C49.139 0.457682 49.3099 0.439779 49.502 0.436523C49.6973 0.430013 49.8942 0.469076 50.0928 0.553711C50.7731 0.898763 51.0384 1.67839 50.8887 2.89258C50.7292 3.98958 50.4639 5.07031 50.0928 6.13477C49.7217 7.19596 49.2904 8.28483 48.7988 9.40137C48.1185 10.9704 47.3291 12.6794 46.4307 14.5283C45.5322 16.374 44.6077 18.2458 43.6572 20.1436C43.2113 21.042 42.7751 21.9193 42.3486 22.7754C43.7646 20.5879 45.332 18.179 47.0508 15.5488C48.7695 12.9154 50.2848 10.5977 51.5967 8.5957C52.9085 6.59049 53.6621 5.43978 53.8574 5.14355C53.8932 5.09147 53.9388 5.05729 53.9941 5.04102C54.0495 5.02474 54.1064 5.02962 54.165 5.05566C54.2204 5.08171 54.2611 5.1224 54.2871 5.17773C54.3132 5.22982 54.318 5.28516 54.3018 5.34375L49.8682 21.4229C50.8415 20.2282 52.2852 18.4639 54.1992 16.1299C56.1133 13.7926 58.0094 11.4912 59.8877 9.22559C61.766 6.95996 63.1348 5.33724 63.9941 4.35742C64.0365 4.31185 64.0869 4.28581 64.1455 4.2793C64.2074 4.26953 64.266 4.28255 64.3213 4.31836ZM60.249 17.6045C60.6201 17.637 61.0368 17.554 61.499 17.3555C61.9613 17.1536 62.3291 16.9372 62.6025 16.7061C62.6481 16.667 62.6986 16.6507 62.7539 16.6572C62.8092 16.6605 62.8564 16.6833 62.8955 16.7256C62.9346 16.7712 62.9508 16.8216 62.9443 16.877C62.9411 16.9323 62.9183 16.9795 62.876 17.0186C62.7002 17.1715 62.4723 17.3262 62.1924 17.4824C61.9157 17.6354 61.6195 17.7656 61.3037 17.873C60.988 17.9805 60.6901 18.0342 60.4102 18.0342C60.3353 18.0342 60.2637 18.0293 60.1953 18.0195C59.8893 17.9772 59.6631 17.8454 59.5166 17.624C59.2562 17.2236 59.3864 16.5482 59.9072 15.5977C59.9365 15.5456 59.9772 15.513 60.0293 15.5C60.0846 15.4837 60.1383 15.4886 60.1904 15.5146C60.2393 15.5439 60.2718 15.5863 60.2881 15.6416C60.3044 15.6937 60.2979 15.7458 60.2686 15.7979C60.0765 16.1592 59.9479 16.4505 59.8828 16.6719C59.8177 16.8932 59.79 17.0609 59.7998 17.1748C59.8128 17.2855 59.834 17.3587 59.8633 17.3945C59.9382 17.5117 60.0667 17.5817 60.249 17.6045ZM60.4883 14.7236C60.5469 14.7236 60.5973 14.7448 60.6396 14.7871C60.682 14.8294 60.7031 14.8799 60.7031 14.9385C60.7031 14.9971 60.682 15.0475 60.6396 15.0898C60.5973 15.1322 60.5469 15.1533 60.4883 15.1533C60.4297 15.1533 60.3792 15.1322 60.3369 15.0898C60.2946 15.0475 60.2734 14.9971 60.2734 14.9385C60.2734 14.8799 60.2946 14.8294 60.3369 14.7871C60.3792 14.7448 60.4297 14.7236 60.4883 14.7236ZM66.4795 16.6572C66.5316 16.6279 66.5837 16.6198 66.6357 16.6328C66.6911 16.6458 66.735 16.6768 66.7676 16.7256C66.7969 16.7744 66.805 16.8265 66.792 16.8818C66.779 16.9339 66.748 16.9762 66.6992 17.0088C66.1165 17.3701 65.5957 17.6273 65.1367 17.7803C64.681 17.9333 64.2887 18.0081 63.96 18.0049C63.7028 18.0049 63.4847 17.9691 63.3057 17.8975C63.1299 17.8258 62.9899 17.7331 62.8857 17.6191C62.7132 17.4173 62.64 17.1829 62.666 16.916C62.6888 16.6458 62.8092 16.374 63.0273 16.1006C63.2585 15.8206 63.5091 15.6009 63.7793 15.4414C64.0495 15.2819 64.3018 15.1745 64.5361 15.1191C64.7738 15.0605 64.9561 15.0475 65.083 15.0801C65.3076 15.1354 65.4313 15.2461 65.4541 15.4121C65.4704 15.487 65.4508 15.5798 65.3955 15.6904C65.3402 15.7979 65.2116 15.9346 65.0098 16.1006C64.8112 16.2666 64.5052 16.4733 64.0918 16.7207C64.0397 16.75 63.986 16.7581 63.9307 16.7451C63.8786 16.7321 63.8379 16.6995 63.8086 16.6475C63.7793 16.5986 63.7712 16.5482 63.7842 16.4961C63.7972 16.4408 63.8298 16.3968 63.8818 16.3643C64.3115 16.1038 64.6061 15.9053 64.7656 15.7686C64.9251 15.6286 65.0114 15.5374 65.0244 15.4951C65.0146 15.4919 65.0033 15.4886 64.9902 15.4854C64.9154 15.4691 64.7852 15.4854 64.5996 15.5342C64.4141 15.583 64.2074 15.6742 63.9795 15.8076C63.7549 15.9411 63.5449 16.125 63.3496 16.3594C63.0469 16.7565 62.9964 17.0837 63.1982 17.3408C63.3903 17.5654 63.7679 17.6387 64.3311 17.5605C64.8975 17.4824 65.6136 17.1813 66.4795 16.6572ZM71.2842 16.0713C71.3363 16.0387 71.39 16.0273 71.4453 16.0371C71.5007 16.0469 71.5462 16.0745 71.582 16.1201C71.6146 16.1722 71.626 16.2259 71.6162 16.2812C71.6064 16.3366 71.5788 16.3822 71.5332 16.418C70.9277 16.8346 70.376 17.0999 69.8779 17.2139C69.3831 17.3278 68.9535 17.3441 68.5889 17.2627C68.4977 17.4515 68.3691 17.624 68.2031 17.7803C68.0046 17.9658 67.7913 18.0781 67.5635 18.1172C67.5114 18.127 67.4609 18.1318 67.4121 18.1318C67.1875 18.1318 66.9906 18.057 66.8213 17.9072C66.5479 17.6338 66.4486 17.2904 66.5234 16.877C66.569 16.6654 66.6699 16.4456 66.8262 16.2178C66.9792 15.9899 67.1761 15.8353 67.417 15.7539C67.5309 15.6595 67.6888 15.6188 67.8906 15.6318C68.0208 15.6383 68.1543 15.6758 68.291 15.7441C68.431 15.8125 68.5417 15.9183 68.623 16.0615C68.7077 16.2275 68.75 16.4098 68.75 16.6084C68.7467 16.693 68.737 16.776 68.7207 16.8574C69.0495 16.916 69.4303 16.89 69.8633 16.7793C70.2995 16.6654 70.7731 16.4294 71.2842 16.0713ZM67.915 17.4727C68.0225 17.3717 68.1087 17.2627 68.1738 17.1455C67.8874 17.0251 67.6742 16.89 67.5342 16.7402C67.404 16.6068 67.3177 16.4701 67.2754 16.3301C67.1061 16.5156 66.9922 16.7288 66.9336 16.9697C66.9076 17.0869 66.9092 17.2025 66.9385 17.3164C66.971 17.4303 67.0264 17.5247 67.1045 17.5996C67.2087 17.6875 67.3389 17.7217 67.4951 17.7021C67.5863 17.6859 67.6676 17.6549 67.7393 17.6094C67.8109 17.5638 67.8695 17.5182 67.915 17.4727ZM68.3154 16.75C68.3219 16.6979 68.3252 16.6475 68.3252 16.5986C68.3285 16.54 68.3219 16.4814 68.3057 16.4229C68.2926 16.361 68.2747 16.3073 68.252 16.2617C68.1934 16.1641 68.0876 16.0973 67.9346 16.0615C67.8662 16.0485 67.8109 16.0452 67.7686 16.0518C67.7262 16.0583 67.7002 16.0648 67.6904 16.0713C67.6872 16.0745 67.6855 16.0778 67.6855 16.0811C67.6628 16.1169 67.6644 16.1689 67.6904 16.2373C67.7165 16.3024 67.7637 16.3708 67.832 16.4424C67.9492 16.5628 68.1104 16.6654 68.3154 16.75ZM74.9854 16.1982C75.0244 16.1559 75.0716 16.1331 75.127 16.1299C75.1823 16.1234 75.2327 16.1396 75.2783 16.1787C75.3206 16.2178 75.3434 16.265 75.3467 16.3203C75.3532 16.3757 75.3369 16.4261 75.2979 16.4717C74.8551 16.9795 74.4922 17.3441 74.209 17.5654C73.929 17.7868 73.7077 17.917 73.5449 17.9561C73.3854 17.9919 73.2633 17.987 73.1787 17.9414C73.0452 17.8763 72.9574 17.7852 72.915 17.668C72.876 17.5475 72.8597 17.4466 72.8662 17.3652C72.889 17.1146 72.9411 16.8639 73.0225 16.6133C73.1071 16.3626 73.195 16.1234 73.2861 15.8955C73.2894 15.889 73.291 15.8841 73.291 15.8809C73.2943 15.8776 73.2975 15.8727 73.3008 15.8662C72.6628 16.4261 71.8864 17.1357 70.9717 17.9951C70.9326 18.0309 70.887 18.0505 70.835 18.0537C70.7959 18.0537 70.7585 18.0439 70.7227 18.0244C70.638 17.9658 70.6071 17.8877 70.6299 17.79C70.9033 16.8525 71.3281 15.9753 71.9043 15.1582C71.9368 15.1126 71.9808 15.085 72.0361 15.0752C72.0915 15.0654 72.1436 15.0768 72.1924 15.1094C72.238 15.1452 72.2656 15.1908 72.2754 15.2461C72.2852 15.2982 72.2738 15.3486 72.2412 15.3975C71.8701 15.9248 71.5576 16.4977 71.3037 17.1162C71.6813 16.7646 72.002 16.4684 72.2656 16.2275C72.5326 15.9867 72.7523 15.7897 72.9248 15.6367C73.1006 15.4837 73.2406 15.3665 73.3447 15.2852C73.4521 15.2038 73.5335 15.1468 73.5889 15.1143C73.6475 15.0817 73.6898 15.0654 73.7158 15.0654C73.7451 15.0622 73.7712 15.0638 73.7939 15.0703C73.846 15.0898 73.8851 15.124 73.9111 15.1729C73.9372 15.2184 73.9437 15.2689 73.9307 15.3242C73.8688 15.5423 73.7842 15.7832 73.6768 16.0469C73.5889 16.2617 73.5059 16.4863 73.4277 16.7207C73.3496 16.9518 73.3008 17.1764 73.2812 17.3945C73.2812 17.4108 73.2829 17.432 73.2861 17.458C73.2926 17.4808 73.2992 17.502 73.3057 17.5215C73.3154 17.541 73.3268 17.554 73.3398 17.5605C73.3398 17.5605 73.348 17.5622 73.3643 17.5654C73.3838 17.5654 73.4115 17.5605 73.4473 17.5508C73.4831 17.541 73.5286 17.5215 73.584 17.4922C73.6426 17.4629 73.7142 17.4189 73.7988 17.3604C73.8835 17.2985 73.9827 17.2171 74.0967 17.1162C74.2106 17.0153 74.3408 16.89 74.4873 16.7402C74.637 16.5905 74.8031 16.4098 74.9854 16.1982ZM75.7764 17.6045C76.1475 17.637 76.5641 17.554 77.0264 17.3555C77.4886 17.1536 77.8564 16.9372 78.1299 16.7061C78.1755 16.667 78.2259 16.6507 78.2812 16.6572C78.3366 16.6605 78.3838 16.6833 78.4229 16.7256C78.4619 16.7712 78.4782 16.8216 78.4717 16.877C78.4684 16.9323 78.4456 16.9795 78.4033 17.0186C78.2275 17.1715 77.9997 17.3262 77.7197 17.4824C77.443 17.6354 77.1468 17.7656 76.8311 17.873C76.5153 17.9805 76.2174 18.0342 75.9375 18.0342C75.8626 18.0342 75.791 18.0293 75.7227 18.0195C75.4167 17.9772 75.1904 17.8454 75.0439 17.624C74.7835 17.2236 74.9137 16.5482 75.4346 15.5977C75.4639 15.5456 75.5046 15.513 75.5566 15.5C75.612 15.4837 75.6657 15.4886 75.7178 15.5146C75.7666 15.5439 75.7992 15.5863 75.8154 15.6416C75.8317 15.6937 75.8252 15.7458 75.7959 15.7979C75.6038 16.1592 75.4753 16.4505 75.4102 16.6719C75.3451 16.8932 75.3174 17.0609 75.3271 17.1748C75.3402 17.2855 75.3613 17.3587 75.3906 17.3945C75.4655 17.5117 75.5941 17.5817 75.7764 17.6045ZM76.0156 14.7236C76.0742 14.7236 76.1247 14.7448 76.167 14.7871C76.2093 14.8294 76.2305 14.8799 76.2305 14.9385C76.2305 14.9971 76.2093 15.0475 76.167 15.0898C76.1247 15.1322 76.0742 15.1533 76.0156 15.1533C75.957 15.1533 75.9066 15.1322 75.8643 15.0898C75.8219 15.0475 75.8008 14.9971 75.8008 14.9385C75.8008 14.8799 75.8219 14.8294 75.8643 14.7871C75.9066 14.7448 75.957 14.7236 76.0156 14.7236Z" fill="white"/>
</svg>
