<svg width="9" height="9" viewBox="0 0 9 9" fill="none" xmlns="http://www.w3.org/2000/svg">
<path d="M0.540381 7.54038C0.28654 7.79422 0.28654 8.20578 0.540381 8.45962C0.794221 8.71346 1.20578 8.71346 1.45962 8.45962L0.540381 7.54038ZM8.65 1C8.65 0.641015 8.35898 0.35 8 0.35L2.15 0.35C1.79102 0.35 1.5 0.641015 1.5 1C1.5 1.35898 1.79102 1.65 2.15 1.65L7.35 1.65L7.35 6.85C7.35 7.20898 7.64102 7.5 8 7.5C8.35898 7.5 8.65 7.20898 8.65 6.85L8.65 1ZM1.45962 8.45962L8.45962 1.45962L7.54038 0.540381L0.540381 7.54038L1.45962 8.45962Z" fill="black"/>
</svg>
