<svg width="139" height="140" viewBox="0 0 139 140" fill="none" xmlns="http://www.w3.org/2000/svg">
<path d="M109.742 66.8126C109.742 59.4479 107.093 54.35 104.826 50.381L104.131 49.252C101.378 44.8227 98.9724 40.932 98.9724 36.3985C98.9724 30.9271 103.124 25.8204 108.977 25.8204C109.151 25.8204 109.319 25.8291 109.481 25.8465L109.75 25.8725C98.7732 15.7922 84.4082 10.2062 69.505 10.2226C59.6282 10.2214 49.9061 12.6757 41.2134 17.3647C32.5206 22.0537 25.13 28.8302 19.7064 37.0846C21.096 37.128 22.4248 37.1628 23.5451 37.1628C29.7721 37.1628 39.4209 36.4072 39.4209 36.4072C42.6342 36.2161 43.0164 40.932 39.803 41.3141C39.803 41.3141 36.581 41.6962 32.9855 41.8786L54.6974 106.441L67.7246 67.3076L58.4319 41.8699C55.2272 41.6789 52.1875 41.3054 52.1875 41.3054C48.9741 41.1143 49.3563 36.1988 52.561 36.3898C52.561 36.3898 62.4095 37.1454 68.263 37.1454C74.4987 37.1454 84.1562 36.3898 84.1562 36.3898C87.3696 36.1988 87.743 40.9233 84.5296 41.3054C84.5296 41.3054 81.2989 41.6789 77.7121 41.8699L99.2504 105.938L105.191 86.0755L105.66 84.573C108.005 77.1041 109.733 71.5892 109.733 66.8039L109.742 66.8126ZM9.9013 69.8262C9.89662 81.0196 13.0453 91.9878 18.9866 101.474C24.9279 110.961 33.4215 118.581 43.494 123.463L15.0514 45.561C11.6362 53.1936 9.88077 61.4644 9.9013 69.8262Z" fill="white"/>
<path d="M52.6655 126.998L70.5562 75.0365L88.8724 125.235C88.9882 125.524 89.13 125.796 89.2979 126.051C77.4909 130.213 64.6718 130.544 52.6655 126.998ZM121.796 41.2266C122.063 43.1257 122.199 45.1695 122.205 47.3581C122.205 53.4027 121.076 60.2029 117.671 68.7053L99.4678 121.335C112.901 113.531 122.754 100.788 126.926 85.8231C131.099 70.8585 129.261 54.8558 121.805 41.2266H121.796Z" fill="white"/>
<path fill-rule="evenodd" clip-rule="evenodd" d="M0.0268555 69.8259C0.0268555 31.5173 31.1965 0.347595 69.5051 0.347595C107.814 0.347595 138.983 31.5173 138.983 69.8259C138.983 108.134 107.805 139.304 69.5051 139.304C31.2052 139.304 0.0268555 108.134 0.0268555 69.8259ZM3.21417 69.8259C3.21417 106.38 32.9509 136.117 69.5051 136.117C106.059 136.117 135.787 106.38 135.787 69.8259C135.787 33.2629 106.051 3.53491 69.5051 3.53491C32.9422 3.53491 3.21417 33.2629 3.21417 69.8259Z" fill="white"/>
</svg>
