<svg width="66" height="95" viewBox="0 0 66 95" fill="none" xmlns="http://www.w3.org/2000/svg">
<path fill-rule="evenodd" clip-rule="evenodd" d="M29.2646 7.39315H18.3377C15.4397 7.39315 12.6604 8.54206 10.6112 10.5871C8.56197 12.6322 7.41074 15.4059 7.41074 18.298C7.41074 21.1902 8.56197 23.9639 10.6112 26.009C12.6604 28.054 15.4397 29.2029 18.3377 29.2029H29.2646V7.39315ZM29.2646 1.90085e-07H47.5997C51.4429 -0.000552489 55.189 1.20411 58.3089 3.44376C61.4288 5.68342 63.7646 8.84483 64.9863 12.4813C66.208 16.1178 66.2538 20.0454 65.1173 23.7093C63.9808 27.3731 61.7193 30.588 58.6526 32.8995C62.5457 35.8083 65.1216 40.1415 65.8134 44.9456C66.5053 49.7498 65.2565 54.6315 62.3418 58.5168C59.4271 62.4021 55.0852 64.9727 50.2713 65.6632C45.4574 66.3537 40.5659 65.1074 36.6727 62.1986V76.7039C36.6724 79.8201 35.8746 82.8846 34.355 85.6069C32.8354 88.3292 30.6444 90.6191 27.9895 92.2595C25.3347 93.8999 22.304 94.8365 19.1849 94.9805C16.0657 95.1244 12.9614 94.4711 10.1662 93.0822C7.37092 91.6934 4.97739 89.6152 3.21247 87.0445C1.44755 84.4739 0.369708 81.496 0.0811186 78.3931C-0.20747 75.2902 0.302755 72.1652 1.56343 69.3143C2.8241 66.4634 4.79345 63.981 7.2848 62.1025C5.02008 60.3984 3.1833 58.1922 1.9195 55.6582C0.655697 53.1241 -0.000526293 50.3316 0.00264157 47.501C0.00264157 41.5347 2.86217 36.2412 7.2848 32.8995C4.21803 30.588 1.95661 27.3731 0.820082 23.7093C-0.316448 20.0454 -0.270624 16.1178 0.951078 12.4813C2.17278 8.84483 4.50859 5.68342 7.62846 3.44376C10.7483 1.20411 14.4945 -0.000552489 18.3377 1.90085e-07H29.2646ZM36.6727 7.39315V29.2029H47.5997C50.4977 29.2029 53.277 28.054 55.3262 26.009C57.3754 23.9639 58.5266 21.1902 58.5266 18.298C58.5266 15.4059 57.3754 12.6322 55.3262 10.5871C53.277 8.54206 50.4977 7.39315 47.5997 7.39315H36.6727ZM18.3377 58.4059H29.2646V36.5961H18.3377C15.4397 36.5902 12.658 37.7335 10.6047 39.7744C8.55129 41.8153 7.39441 44.5867 7.38852 47.4788C7.38262 50.371 8.5282 53.147 10.5732 55.1962C12.6183 57.2455 15.3952 58.4 18.2932 58.4059H18.3377ZM7.41074 76.7039C7.41074 70.6933 12.2779 65.8212 18.3006 65.799H29.2646V76.7039C29.2646 79.5961 28.1134 82.3698 26.0642 84.4149C24.015 86.4599 21.2357 87.6088 18.3377 87.6088C15.4397 87.6088 12.6604 86.4599 10.6112 84.4149C8.56197 82.3698 7.41074 79.5961 7.41074 76.7039ZM36.6727 47.4788C36.6786 44.5886 37.834 41.8189 39.8849 39.7783C41.9359 37.7377 44.7147 36.5932 47.6108 36.5961C50.5068 36.599 53.2833 37.7492 55.3301 39.794C57.3769 41.8387 58.5266 44.6108 58.5266 47.501C58.5266 50.3912 57.3769 53.1633 55.3301 55.208C53.2833 57.2527 50.5068 58.4029 47.6108 58.4059C44.7147 58.4088 41.9359 57.2643 39.8849 55.2237C37.834 53.1831 36.6786 50.4134 36.6727 47.5232V47.4788Z" fill="white"/>
</svg>
