<svg width="144" height="143" viewBox="0 0 144 143" fill="none" xmlns="http://www.w3.org/2000/svg">
<path fill-rule="evenodd" clip-rule="evenodd" d="M0 5.34859C0 3.93006 0.567451 2.56962 1.57752 1.56657C2.58759 0.563511 3.95754 0 5.386 0H138.614C140.042 0 141.412 0.563511 142.422 1.56657C143.433 2.56962 144 3.93006 144 5.34859V137.651C144 139.07 143.433 140.43 142.422 141.433C141.412 142.436 140.042 143 138.614 143H5.386C3.95754 143 2.58759 142.436 1.57752 141.433C0.567451 140.43 0 139.07 0 137.651V5.34859ZM11.3537 131.725L54.6679 11.2748H89.3214L132.646 131.725H101.192L72 51.6781L53.9246 105.913H70.6858L79.3573 131.725H11.3429H11.3537Z" fill="white"/>
</svg>
