<svg width="188" height="127" viewBox="0 0 188 127" fill="none" xmlns="http://www.w3.org/2000/svg">
<path d="M94 0C81.1411 0 70.087 3.5179 61.4142 11.049C52.7915 18.542 47.1641 29.4259 44.0309 43.0022C43.6983 44.4401 43.8707 45.9505 44.5185 47.2734C45.1663 48.5964 46.2488 49.6492 47.5799 50.2507C48.911 50.8521 50.4073 50.9647 51.8114 50.5689C53.2155 50.1731 54.4396 49.2938 55.273 48.0822C59.2334 42.3418 63.1939 38.9001 67.0039 37.1221C70.6886 35.4076 74.6616 35.0647 79.2236 36.2966C83.8107 37.5412 87.37 41.1988 92.9472 47.3456L93.1352 47.5488C97.3463 52.1843 102.472 57.8358 109.491 62.23C116.785 66.7893 125.846 69.85 137.866 69.85C150.724 69.85 161.779 66.3321 170.451 58.801C179.074 51.308 184.714 40.4241 187.835 26.8478C188.167 25.4099 187.995 23.8995 187.347 22.5766C186.699 21.2536 185.617 20.2008 184.286 19.5993C182.955 18.9979 181.458 18.8853 180.054 19.2811C178.65 19.6769 177.426 20.5562 176.593 21.7678C172.632 27.5082 168.672 30.9499 164.862 32.7279C161.177 34.4424 157.204 34.7853 152.642 33.5534C148.055 32.3088 144.496 28.6512 138.918 22.5044L138.73 22.3012C134.519 17.6657 129.393 12.0142 122.375 7.62C115.081 3.0607 106.019 0 94 0ZM50.1345 57.15C37.2756 57.15 26.2215 60.6679 17.5486 68.199C8.92591 75.692 3.29858 86.5759 0.16533 100.152C-0.167231 101.59 0.00520061 103.1 0.652953 104.423C1.3007 105.746 2.38327 106.799 3.71434 107.401C5.04542 108.002 6.54176 108.115 7.94588 107.719C9.35 107.323 10.5741 106.444 11.4074 105.232C15.3679 99.4918 19.3283 96.0501 23.1383 94.2721C26.823 92.5576 30.796 92.2147 35.358 93.4466C39.9451 94.6912 43.5045 98.3488 49.0817 104.496L49.2697 104.699C53.4808 109.334 58.6068 114.986 65.6253 119.38C72.9195 123.939 81.9808 127 94 127C106.859 127 117.913 123.482 126.586 115.951C135.209 108.458 140.848 97.5741 143.969 83.9978C144.302 82.5599 144.129 81.0495 143.482 79.7266C142.834 78.4036 141.751 77.3508 140.42 76.7493C139.089 76.1479 137.593 76.0353 136.189 76.4311C134.784 76.8269 133.56 77.7062 132.727 78.9178C128.767 84.6582 124.806 88.0999 120.996 89.8779C117.311 91.5924 113.338 91.9353 108.776 90.7034C104.189 89.4588 100.63 85.8012 95.0528 79.6544L94.8648 79.4512C90.6662 74.8157 85.5277 69.1642 78.5092 64.77C71.215 60.198 62.1536 57.15 50.1345 57.15Z" fill="white"/>
</svg>
