<svg width="168" height="167" viewBox="0 0 168 167" fill="none" xmlns="http://www.w3.org/2000/svg">
<path d="M0 0H168V167H0V0ZM154.238 127.17C153.013 119.551 148.022 113.149 133.217 107.179C128.065 104.779 122.339 103.109 120.638 99.2467C120.001 96.9505 119.903 95.698 120.316 94.3411C121.366 89.846 126.721 88.4961 130.921 89.7486C133.651 90.5836 136.171 92.6711 137.753 96.0111C144.991 91.3073 144.991 91.3073 150.038 88.183C148.148 85.2605 147.21 84.001 145.936 82.7555C141.526 77.8498 135.653 75.3448 126.098 75.5605L121.163 76.1798C116.431 77.328 111.923 79.833 109.193 83.173C101.213 92.1562 103.516 107.812 113.176 114.284C122.731 121.381 136.703 122.94 138.488 129.627C140.168 137.768 132.398 140.377 124.726 139.438C119.049 138.186 115.906 135.36 112.441 130.142L99.631 137.455C101.101 140.795 102.781 142.249 105.301 145.172C117.481 157.391 147.931 156.764 153.398 138.186C153.601 137.559 155.078 133.28 153.916 126.704L154.238 127.17ZM91.357 76.7574H75.621C75.621 90.2426 75.558 103.644 75.558 117.151C75.558 125.723 75.999 133.593 74.592 136.015C72.282 140.809 66.332 140.197 63.63 139.355C60.858 137.991 59.451 136.112 57.82 133.405C57.379 132.675 57.05 132.041 56.931 132.041L44.156 139.869C46.291 144.253 49.406 148.025 53.424 150.425C59.409 153.974 67.452 155.122 75.873 153.243C81.354 151.671 86.079 148.435 88.55 143.425C92.12 136.954 91.364 129.021 91.329 120.143C91.413 105.85 91.329 91.5508 91.329 77.147L91.357 76.7574Z" fill="white"/>
</svg>
