<svg width="197" height="175" viewBox="0 0 197 175" fill="none" xmlns="http://www.w3.org/2000/svg">
<path d="M98.5 70.3039C107.938 70.3039 115.634 77.9466 115.634 87.5C115.634 96.5984 107.938 104.332 98.5 104.332C89.0623 104.332 81.3656 96.5984 81.3656 87.5C81.3656 77.9466 89.0623 70.3039 98.5 70.3039ZM56.0763 160.288C61.8488 163.745 74.4935 158.468 89.0623 144.82C84.2977 139.452 79.6246 133.629 75.2265 127.533C67.8433 126.826 60.5029 125.733 53.2358 124.258C48.5628 143.728 50.3037 157.103 56.0763 160.288ZM62.5819 108.062L59.9246 103.422C58.9167 106.061 57.9088 108.699 57.2674 111.247C59.7414 111.793 62.4902 112.248 65.3307 112.703L62.5819 108.062ZM122.507 101.148L129.928 87.5L122.507 73.8523C119.758 69.0302 116.826 64.7539 114.168 60.4776C109.22 60.2047 103.998 60.2047 98.5 60.2047C93.0023 60.2047 87.7795 60.2047 82.8316 60.4776C80.1744 64.7539 77.2423 69.0302 74.4935 73.8523L67.0716 87.5L74.4935 101.148C77.2423 105.97 80.1744 110.246 82.8316 114.522C87.7795 114.795 93.0023 114.795 98.5 114.795C103.998 114.795 109.22 114.795 114.168 114.522C116.826 110.246 119.758 105.97 122.507 101.148ZM98.5 40.0061C96.7591 42.0078 94.9265 44.1004 93.0939 46.557H103.906C102.073 44.1004 100.241 42.0078 98.5 40.0061ZM98.5 134.994C100.241 132.992 102.073 130.9 103.906 128.443H93.0939C94.9265 130.9 96.7591 132.992 98.5 134.994ZM140.832 14.7125C135.151 11.2551 122.507 16.5322 107.938 30.1798C112.702 35.5479 117.375 41.3709 121.773 47.4669C129.287 48.1947 136.709 49.2866 143.764 50.7423C148.437 31.2716 146.696 17.8969 140.832 14.7125ZM134.418 66.9375L137.075 71.5777C138.083 68.9392 139.091 66.3006 139.733 63.7531C137.259 63.2072 134.51 62.7522 131.669 62.2973L134.418 66.9375ZM147.704 2.79352C161.173 10.4362 162.64 30.5438 156.959 54.0177C180.232 60.8416 197 72.1236 197 87.5C197 102.876 180.232 114.158 156.959 120.982C162.64 144.456 161.173 164.564 147.704 172.206C134.327 179.849 116.093 171.115 98.5 154.465C80.9074 171.115 62.6735 179.849 49.2042 172.206C35.8265 164.564 34.3605 144.456 40.0414 120.982C16.7679 114.158 0 102.876 0 87.5C0 72.1236 16.7679 60.8416 40.0414 54.0177C34.3605 30.5438 35.8265 10.4362 49.2042 2.79352C62.6735 -4.84917 80.9074 3.88533 98.5 20.5355C116.093 3.88533 134.327 -4.84917 147.704 2.79352ZM145.047 87.5C148.162 94.3238 150.911 101.148 153.202 108.062C172.444 102.33 183.256 94.1419 183.256 87.5C183.256 80.8581 172.444 72.6695 153.202 66.9375C150.911 73.8523 148.162 80.6762 145.047 87.5ZM51.953 87.5C48.8377 80.6762 46.0888 73.8523 43.7981 66.9375C24.5563 72.6695 13.7442 80.8581 13.7442 87.5C13.7442 94.1419 24.5563 102.33 43.7981 108.062C46.0888 101.148 48.8377 94.3238 51.953 87.5ZM134.418 108.062L131.669 112.703C134.51 112.248 137.259 111.793 139.733 111.247C139.091 108.699 138.083 106.061 137.075 103.422L134.418 108.062ZM107.938 144.82C122.507 158.468 135.151 163.745 140.832 160.288C146.696 157.103 148.437 143.728 143.764 124.258C136.709 125.713 129.287 126.805 121.773 127.533C117.375 133.629 112.702 139.452 107.938 144.82ZM62.5819 66.9375L65.3307 62.2973C62.4902 62.7522 59.7414 63.2072 57.2674 63.7531C57.9088 66.3006 58.9167 68.9392 59.9246 71.5777L62.5819 66.9375ZM89.0623 30.1798C74.4935 16.5322 61.8488 11.2551 56.0763 14.7125C50.3037 17.8969 48.5628 31.2716 53.2358 50.7423C60.5029 49.267 67.8433 48.1736 75.2265 47.4669C79.6246 41.3709 84.2977 35.5479 89.0623 30.1798Z" fill="white"/>
</svg>
